<svg id="visual" viewBox="0 0 960 540" width="960" height="540" xmlns="http://www.w3.org/2000/svg" xmlns:xlink="http://www.w3.org/1999/xlink" version="1.1"><rect x="0" y="0" width="960" height="540" fill="#121212"></rect><g transform="translate(954.507291370753 508.91273600938564)"><path d="M108.5 -129.4C159.6 -135.9 233.3 -138.1 251 -111.2C268.7 -84.3 230.4 -28.3 212.8 24.2C195.3 76.7 198.5 125.8 178.4 161.5C158.2 197.2 114.6 219.5 77.7 201.5C40.8 183.6 10.5 125.4 -6.6 89.7C-23.8 54 -27.8 40.8 -75 36.9C-122.2 32.9 -212.6 38.2 -237.1 20C-261.7 1.8 -220.4 -40 -188.4 -76C-156.4 -112 -133.6 -142.3 -103.8 -145.4C-73.9 -148.6 -36.9 -124.8 -4.1 -118.4C28.7 -111.9 57.3 -122.8 108.5 -129.4" fill="#3abb2b"></path></g></svg>