<svg id="visual" viewBox="0 0 960 540" width="960" height="540" xmlns="http://www.w3.org/2000/svg" xmlns:xlink="http://www.w3.org/1999/xlink" version="1.1"><rect x="0" y="0" width="960" height="540" fill="#121212"></rect><g transform="translate(1001.6934126946959 634.700580967918)"><path d="M144.3 -245C170.4 -207.8 163.4 -139.6 142.9 -92.3C122.5 -45 88.4 -18.6 72.3 1.9C56.2 22.5 57.9 37.1 54.1 53.5C50.2 70 40.7 88.2 27 92.6C13.2 96.9 -4.8 87.3 -15.3 74.2C-25.8 61 -28.9 44.3 -40.9 33.7C-52.9 23 -74 18.3 -119.8 -9.7C-165.7 -37.6 -236.3 -88.9 -243.9 -127.6C-251.5 -166.4 -196 -192.6 -144.9 -218.4C-93.7 -244.2 -46.9 -269.6 6.1 -279.1C59.1 -288.6 118.2 -282.3 144.3 -245" fill="#3abb2b"></path></g></svg>