<svg id="visual" viewBox="0 0 960 540" width="960" height="540" xmlns="http://www.w3.org/2000/svg" xmlns:xlink="http://www.w3.org/1999/xlink" version="1.1"><rect x="0" y="0" width="960" height="540" fill="#121212"></rect><g transform="translate(944.1442450454207 538.9922766662977)"><path d="M157.7 -236.9C193.8 -222.2 205.2 -160.6 218.5 -106.9C231.8 -53.3 247 -7.8 226.6 22.2C206.1 52.2 149.9 66.7 109.9 72.9C69.8 79.1 45.9 77 15.1 115.2C-15.8 153.5 -53.5 232.2 -82.5 241.7C-111.5 251.1 -131.7 191.4 -123.4 140.6C-115.2 89.8 -78.5 47.9 -95.8 6.5C-113 -34.9 -184.3 -75.8 -200.9 -113.4C-217.4 -151 -179.3 -185.3 -136.7 -197C-94.1 -208.7 -47 -197.9 6.9 -208.6C60.8 -219.3 121.6 -251.6 157.7 -236.9" fill="#3abb2b"></path></g></svg>