<svg id="visual" viewBox="0 0 960 540" width="960" height="540" xmlns="http://www.w3.org/2000/svg" xmlns:xlink="http://www.w3.org/1999/xlink" version="1.1"><rect x="0" y="0" width="960" height="540" fill="#121212"></rect><g transform="translate(-5.151090139000203 37.759920033782976)"><path d="M110.3 -138C161.4 -138.7 234.2 -139.5 233.8 -114.4C233.4 -89.3 159.7 -38.5 115.3 -9.3C70.8 19.8 55.4 27.3 48.4 50.1C41.4 73 42.7 111.4 32.7 116.6C22.8 121.9 1.7 94 -35.2 94.7C-72.2 95.4 -124.9 124.7 -166.5 120.1C-208.1 115.5 -238.7 77.1 -215.5 48.5C-192.3 20 -115.3 1.2 -97 -46.5C-78.6 -94.1 -118.8 -170.7 -112.4 -190.5C-106 -210.2 -53 -173.1 -11.7 -154.9C29.6 -136.7 59.1 -137.3 110.3 -138" fill="#3abb2b"></path></g></svg>