<svg id="visual" viewBox="0 0 960 540" width="960" height="540" xmlns="http://www.w3.org/2000/svg" xmlns:xlink="http://www.w3.org/1999/xlink" version="1.1"><rect x="0" y="0" width="960" height="540" fill="#121212"></rect><defs><linearGradient id="grad1_0" x1="43.8%" y1="100%" x2="100%" y2="0%"><stop offset="14.444444444444446%" stop-color="#121212" stop-opacity="1"></stop><stop offset="85.55555555555554%" stop-color="#121212" stop-opacity="1"></stop></linearGradient></defs><defs><linearGradient id="grad2_0" x1="0%" y1="100%" x2="56.3%" y2="0%"><stop offset="14.444444444444446%" stop-color="#121212" stop-opacity="1"></stop><stop offset="85.55555555555554%" stop-color="#121212" stop-opacity="1"></stop></linearGradient></defs><g transform="translate(960, 540)"><path d="M-270 0C-248.3 -19.8 -226.5 -39.6 -214.4 -57.5C-202.3 -75.3 -199.8 -91.2 -200.1 -115.5C-200.3 -139.8 -203.2 -172.6 -190.9 -190.9C-178.6 -209.3 -151.2 -213.2 -129 -223.4C-106.8 -233.6 -90 -250.1 -69.4 -258.9C-48.7 -267.7 -24.4 -268.8 0 -270L0 0Z" fill="#3abb2b"></path></g><g transform="translate(0, 0)"><path d="M270 0C271.9 25.7 273.8 51.3 260.8 69.9C247.8 88.5 219.9 99.9 207 119.5C194 139.1 196 166.7 181.7 181.7C167.4 196.8 136.9 199.2 112 194C87.1 188.8 67.9 176 50.2 187.4C32.5 198.8 16.2 234.4 0 270L0 0Z" fill="#3abb2b"></path></g></svg>