<svg id="visual" viewBox="0 0 960 540" width="960" height="540" xmlns="http://www.w3.org/2000/svg" xmlns:xlink="http://www.w3.org/1999/xlink" version="1.1"><rect x="0" y="0" width="960" height="540" fill="#121212"></rect><g transform="translate(38.795418801415394 53.49851361232791)"><path d="M134.1 -247.5C150.1 -198.5 122.8 -121.1 111.9 -72.4C101 -23.7 106.4 -3.8 127.4 35.4C148.4 74.7 184.9 133.3 175.9 163.5C167 193.8 112.5 195.7 69.1 185.8C25.7 175.9 -6.6 154.2 -54.7 154.5C-102.8 154.9 -166.6 177.3 -207.8 162.1C-249 146.9 -267.5 94 -245.6 53.2C-223.8 12.3 -161.5 -16.5 -117.6 -29.2C-73.7 -42 -48.3 -38.8 -31.7 -87.5C-15.2 -136.2 -7.6 -236.8 25.8 -276.9C59.1 -317 118.2 -296.5 134.1 -247.5" fill="#3abb2b"></path></g></svg>