<svg id="visual" viewBox="0 0 960 540" width="960" height="540" xmlns="http://www.w3.org/2000/svg" xmlns:xlink="http://www.w3.org/1999/xlink" version="1.1"><rect x="0" y="0" width="960" height="540" fill="#121212"></rect><defs><linearGradient id="grad1_0" x1="43.8%" y1="100%" x2="100%" y2="0%"><stop offset="14.444444444444446%" stop-color="#121212" stop-opacity="1"></stop><stop offset="85.55555555555554%" stop-color="#121212" stop-opacity="1"></stop></linearGradient></defs><defs><linearGradient id="grad2_0" x1="0%" y1="100%" x2="56.3%" y2="0%"><stop offset="14.444444444444446%" stop-color="#121212" stop-opacity="1"></stop><stop offset="85.55555555555554%" stop-color="#121212" stop-opacity="1"></stop></linearGradient></defs><g transform="translate(960, 540)"><path d="M-270 0C-248 -18.6 -226 -37.2 -214.4 -57.5C-202.8 -77.7 -201.6 -99.7 -187.1 -108C-172.5 -116.3 -144.6 -111 -138.6 -138.6C-132.6 -166.2 -148.4 -226.6 -135 -233.8C-121.6 -241.1 -78.9 -195.1 -51.5 -192.2C-24.1 -189.4 -12.1 -229.7 0 -270L0 0Z" fill="#3abb2b"></path></g><g transform="translate(0, 0)"><path d="M270 0C232.5 13.7 195 27.3 191.3 51.2C187.5 75.1 217.4 109.3 210.4 121.5C203.4 133.7 159.5 124 145 145C130.4 165.9 145.4 217.4 135 233.8C124.6 250.3 88.8 231.6 62.1 231.8C35.4 232 17.7 251 0 270L0 0Z" fill="#3abb2b"></path></g></svg>