<svg id="visual" viewBox="0 0 960 540" width="960" height="540" xmlns="http://www.w3.org/2000/svg" xmlns:xlink="http://www.w3.org/1999/xlink" version="1.1"><rect x="0" y="0" width="960" height="540" fill="#121212"></rect><g transform="translate(-5.3517329991847475 -9.561369311165663)"><path d="M139 -171.9C185.7 -186.2 232.9 -157.1 260.2 -114C287.4 -70.8 294.7 -13.7 278.7 34.2C262.7 82.2 223.6 121 183.6 149.1C143.7 177.2 103 194.6 64.4 194.7C25.8 194.8 -10.6 177.5 -37.4 156.4C-64.1 135.2 -81.2 110.2 -129 91.5C-176.9 72.8 -255.5 60.4 -272.6 30.9C-289.7 1.4 -245.4 -45.2 -207.5 -81C-169.7 -116.7 -138.4 -141.6 -104.9 -133.4C-71.4 -125.1 -35.7 -83.7 5.2 -91.8C46.1 -99.9 92.3 -157.6 139 -171.9" fill="#3abb2b"></path></g></svg>